<?xml version="1.0" encoding="utf-8"?>
<svg version="1.1" id="Layer_1" xmlns="http://www.w3.org/2000/svg" xmlns:xlink="http://www.w3.org/1999/xlink" x="0px" y="0px"
	 viewBox="0 0 192.7 24.4" style="enable-background:new 0 0 192.7 24.4;" xml:space="preserve">
<style type="text/css">
	.st0{fill:#666766;}
</style>
<g>
	<path class="st0" d="M5.9,20.2H3.6c-0.1,0-0.1,0-0.2,0.1c0,0-0.1,0.1-0.1,0.2v0.3c0,0.1,0,0.1,0.1,0.2c0,0,0.1,0.1,0.2,0.1h1.6v0.4
		c0,0.4-0.1,0.8-0.3,1.1s-0.4,0.5-0.7,0.6c-0.3,0.1-0.6,0.2-1,0.2c-0.6,0-1-0.2-1.3-0.5c-0.3-0.3-0.5-0.8-0.6-1.5c0-0.3,0-0.6,0-0.9
		c0-0.3,0-0.6,0-0.9c0-0.7,0.2-1.2,0.6-1.5s0.8-0.5,1.3-0.5c0.4,0,0.7,0.1,0.9,0.2s0.4,0.3,0.6,0.4C4.8,18.4,5,18.6,5,18.8
		c0,0.1,0.1,0.1,0.1,0.1c0,0,0.1,0,0.2,0h0.6C5.9,19,6,19,6,18.9c0,0,0.1-0.1,0.1-0.1c0,0,0,0,0,0c0-0.2-0.1-0.4-0.2-0.6
		c-0.1-0.2-0.3-0.5-0.5-0.7c-0.2-0.2-0.5-0.4-0.9-0.5c-0.4-0.1-0.8-0.2-1.3-0.2c-0.6,0-1.1,0.1-1.6,0.3c-0.4,0.2-0.8,0.5-1,1
		c-0.2,0.4-0.4,0.9-0.4,1.5c0,0.3,0,0.6,0,1s0,0.7,0,1c0,0.6,0.2,1.1,0.4,1.5c0.2,0.4,0.6,0.7,1,1c0.4,0.2,1,0.3,1.6,0.3
		c0.6,0,1.1-0.1,1.6-0.4c0.4-0.2,0.8-0.6,1-1c0.2-0.4,0.4-0.9,0.4-1.5v-1c0-0.1,0-0.1-0.1-0.2C6.1,20.2,6,20.2,5.9,20.2z"/>
	<path class="st0" d="M12.2,23.3H8.7v-6.2c0-0.1,0-0.1-0.1-0.2c0,0-0.1-0.1-0.2-0.1H7.9c-0.1,0-0.1,0-0.2,0.1c0,0-0.1,0.1-0.1,0.2
		V24c0,0.1,0,0.1,0.1,0.2s0.1,0.1,0.2,0.1h4.3c0.1,0,0.1,0,0.2-0.1s0.1-0.1,0.1-0.2v-0.4c0-0.1,0-0.1-0.1-0.2
		C12.3,23.3,12.3,23.3,12.2,23.3z"/>
	<path class="st0" d="M18.7,18c-0.2-0.4-0.6-0.8-1-1c-0.4-0.2-0.9-0.3-1.5-0.3c-0.6,0-1.1,0.1-1.5,0.3s-0.8,0.5-1,1
		c-0.2,0.4-0.4,1-0.4,1.6c0,0.3,0,0.6,0,0.9s0,0.6,0,0.9c0,0.7,0.2,1.2,0.4,1.6c0.2,0.4,0.6,0.7,1,1c0.4,0.2,0.9,0.3,1.5,0.3
		c0.6,0,1.1-0.1,1.5-0.3c0.4-0.2,0.8-0.5,1-1c0.2-0.4,0.4-1,0.4-1.6c0-0.3,0-0.6,0-0.9s0-0.6,0-0.9C19.1,19,19,18.5,18.7,18z
		 M18.1,21.4c0,0.7-0.2,1.2-0.6,1.6s-0.8,0.5-1.3,0.5c-0.5,0-1-0.2-1.3-0.5c-0.3-0.3-0.5-0.8-0.6-1.6c0-0.3,0-0.6,0-0.8
		c0-0.2,0-0.5,0-0.8c0-0.5,0.1-0.9,0.3-1.2s0.4-0.5,0.7-0.7c0.3-0.1,0.6-0.2,0.9-0.2s0.7,0.1,0.9,0.2c0.3,0.1,0.5,0.4,0.7,0.7
		c0.2,0.3,0.3,0.7,0.3,1.2c0,0.3,0,0.6,0,0.8C18.1,20.8,18.1,21,18.1,21.4z"/>
	<path class="st0" d="M25.2,20.3c0.1-0.1,0.3-0.2,0.4-0.3c0.1-0.1,0.3-0.3,0.4-0.5c0.1-0.2,0.1-0.5,0.1-0.7c0-0.4-0.1-0.7-0.2-1
		s-0.4-0.5-0.7-0.7s-0.8-0.3-1.3-0.3h-2.9c-0.1,0-0.1,0-0.2,0.1c0,0-0.1,0.1-0.1,0.2V24c0,0.1,0,0.1,0.1,0.2s0.1,0.1,0.2,0.1h3
		c0.5,0,0.9-0.1,1.3-0.3c0.3-0.2,0.6-0.4,0.8-0.8c0.2-0.3,0.3-0.7,0.3-1.1c0-0.4-0.1-0.8-0.3-1.1S25.4,20.5,25.2,20.3z M21.7,17.7
		h1.9c0.4,0,0.8,0.1,1,0.3c0.2,0.2,0.3,0.5,0.3,0.8c0,0.4-0.1,0.6-0.3,0.8c-0.2,0.2-0.6,0.3-1,0.3h-1.9V17.7z M24.8,23
		c-0.2,0.2-0.6,0.4-1,0.4h-2v-2.6h2c0.4,0,0.8,0.1,1,0.4s0.4,0.5,0.4,0.9C25.2,22.4,25.1,22.7,24.8,23z"/>
	<path class="st0" d="M31,17.1c0-0.1-0.1-0.1-0.1-0.2c0,0-0.1-0.1-0.2-0.1H30c-0.1,0-0.2,0-0.2,0.1s-0.1,0.1-0.1,0.2L27,23.9
		c0,0,0,0.1,0,0.1c0,0.1,0,0.1,0.1,0.1s0.1,0.1,0.1,0.1h0.5c0.1,0,0.1,0,0.2-0.1S28,24.1,28,24l0.6-1.5H32l0.6,1.5
		c0,0,0,0.1,0.1,0.1c0,0,0.1,0.1,0.2,0.1h0.5c0.1,0,0.1,0,0.1-0.1s0.1-0.1,0.1-0.1c0,0,0-0.1,0-0.1L31,17.1z M28.9,21.6l1.4-3.7
		l1.4,3.7H28.9z"/>
	<path class="st0" d="M39.3,23.3h-3.5v-6.2c0-0.1,0-0.1-0.1-0.2c0,0-0.1-0.1-0.2-0.1H35c-0.1,0-0.1,0-0.2,0.1c0,0-0.1,0.1-0.1,0.2
		V24c0,0.1,0,0.1,0.1,0.2s0.1,0.1,0.2,0.1h4.3c0.1,0,0.1,0,0.2-0.1s0.1-0.1,0.1-0.2v-0.4c0-0.1,0-0.1-0.1-0.2
		C39.4,23.3,39.4,23.3,39.3,23.3z"/>
	<path class="st0" d="M47.5,17.1c-0.4-0.2-0.8-0.3-1.3-0.3h-2.7c-0.1,0-0.1,0-0.2,0.1c0,0-0.1,0.1-0.1,0.2V24c0,0.1,0,0.1,0.1,0.2
		s0.1,0.1,0.2,0.1H44c0.1,0,0.1,0,0.2-0.1c0,0,0.1-0.1,0.1-0.2v-2.6h1.9c0.5,0,1-0.1,1.3-0.3c0.4-0.2,0.7-0.4,0.9-0.7
		s0.3-0.7,0.3-1.2s-0.1-0.9-0.3-1.2C48.2,17.5,47.9,17.3,47.5,17.1z M47.3,20.1c-0.3,0.2-0.6,0.3-1.2,0.3h-1.8v-2.7h1.8
		c0.5,0,0.9,0.1,1.2,0.4s0.4,0.6,0.4,1C47.6,19.5,47.5,19.9,47.3,20.1z"/>
	<path class="st0" d="M53.8,21.1c0.5-0.1,0.8-0.4,1.1-0.7c0.3-0.3,0.4-0.8,0.4-1.3c0-0.7-0.2-1.3-0.7-1.6c-0.5-0.4-1.1-0.6-1.9-0.6
		h-2.6c-0.1,0-0.1,0-0.2,0.1c0,0-0.1,0.1-0.1,0.2V24c0,0.1,0,0.1,0.1,0.2s0.1,0.1,0.2,0.1h0.5c0.1,0,0.1,0,0.2-0.1
		c0,0,0.1-0.1,0.1-0.2v-2.7h1.8l1.5,2.7c0,0.1,0.1,0.1,0.1,0.2c0.1,0.1,0.1,0.1,0.3,0.1h0.5c0.1,0,0.1,0,0.2-0.1s0.1-0.1,0.1-0.1
		c0,0,0-0.1,0-0.1L53.8,21.1z M52.7,20.4H51v-2.6h1.7c0.5,0,0.9,0.1,1.2,0.3c0.3,0.2,0.4,0.5,0.4,1c0,0.4-0.1,0.8-0.4,1
		C53.7,20.2,53.3,20.4,52.7,20.4z"/>
	<path class="st0" d="M57.6,16.8h-0.6c-0.1,0-0.1,0-0.2,0.1c0,0-0.1,0.1-0.1,0.2V24c0,0.1,0,0.1,0.1,0.2s0.1,0.1,0.2,0.1h0.6
		c0.1,0,0.1,0,0.2-0.1s0.1-0.1,0.1-0.2v-6.9c0-0.1,0-0.1-0.1-0.2C57.8,16.9,57.7,16.8,57.6,16.8z"/>
	<path class="st0" d="M66,16.8h-0.5c-0.1,0-0.1,0-0.2,0.1c0,0-0.1,0.1-0.1,0.1L63,21.3L60.8,17c0,0,0-0.1-0.1-0.1s-0.1-0.1-0.2-0.1
		H60c-0.1,0-0.1,0-0.2,0.1c0,0-0.1,0.1-0.1,0.2V24c0,0.1,0,0.1,0.1,0.2c0,0,0.1,0.1,0.2,0.1h0.5c0.1,0,0.1,0,0.2-0.1
		s0.1-0.1,0.1-0.2v-5.2l1.8,3.4c0,0.1,0.1,0.1,0.1,0.2c0,0,0.1,0.1,0.2,0.1h0.3c0.1,0,0.2,0,0.2-0.1c0.1,0,0.1-0.1,0.1-0.2l1.8-3.4
		V24c0,0.1,0,0.1,0.1,0.2s0.1,0.1,0.2,0.1H66c0.1,0,0.1,0,0.2-0.1s0.1-0.1,0.1-0.2v-6.9c0-0.1,0-0.1-0.1-0.2
		C66.1,16.9,66.1,16.8,66,16.8z"/>
	<path class="st0" d="M72.7,23.3h-3.7v-2.4h3.3c0.1,0,0.1,0,0.2-0.1c0,0,0.1-0.1,0.1-0.2v-0.4c0-0.1,0-0.1-0.1-0.2S72.5,20,72.4,20
		h-3.3v-2.3h3.6c0.1,0,0.1,0,0.2-0.1s0.1-0.1,0.1-0.2v-0.4c0-0.1,0-0.1-0.1-0.2c0,0-0.1-0.1-0.2-0.1h-4.3c-0.1,0-0.1,0-0.2,0.1
		c0,0-0.1,0.1-0.1,0.2V24c0,0.1,0,0.1,0.1,0.2s0.1,0.1,0.2,0.1h4.4c0.1,0,0.1,0,0.2-0.1S73,24,73,24v-0.4c0-0.1,0-0.1-0.1-0.2
		S72.8,23.3,72.7,23.3z"/>
	<path class="st0" d="M81.8,17.5c-0.2-0.2-0.5-0.4-0.9-0.5c-0.4-0.1-0.8-0.2-1.3-0.2c-0.6,0-1.2,0.1-1.6,0.4c-0.4,0.2-0.7,0.6-1,1
		c-0.2,0.4-0.3,0.9-0.4,1.5c0,0.3,0,0.6,0,0.9s0,0.6,0,0.9c0,0.6,0.1,1.1,0.4,1.5c0.2,0.4,0.5,0.8,1,1c0.4,0.2,1,0.4,1.6,0.4
		c0.5,0,0.9-0.1,1.3-0.2c0.4-0.1,0.7-0.3,0.9-0.5c0.2-0.2,0.4-0.5,0.6-0.8c0.1-0.3,0.2-0.6,0.2-0.9c0,0,0,0,0,0c0-0.1,0-0.1-0.1-0.1
		c0,0-0.1-0.1-0.2-0.1h-0.6c-0.1,0-0.1,0-0.2,0.1c0,0-0.1,0.1-0.1,0.2c-0.1,0.5-0.3,0.9-0.7,1.1c-0.3,0.2-0.7,0.3-1.2,0.3
		c-0.6,0-1-0.2-1.3-0.5s-0.5-0.8-0.5-1.5c0-0.3,0-0.6,0-0.9s0-0.6,0-0.9c0-0.7,0.2-1.2,0.5-1.5s0.8-0.5,1.3-0.5
		c0.5,0,0.9,0.1,1.2,0.3c0.3,0.2,0.5,0.6,0.7,1.1c0,0.1,0.1,0.2,0.1,0.2s0.1,0.1,0.2,0.1h0.6c0.1,0,0.1,0,0.2-0.1
		c0,0,0.1-0.1,0.1-0.1c0,0,0,0,0,0c0-0.3-0.1-0.6-0.2-0.9S82.1,17.7,81.8,17.5z"/>
	<path class="st0" d="M89.1,18c-0.2-0.4-0.6-0.8-1-1c-0.4-0.2-0.9-0.3-1.5-0.3c-0.6,0-1.1,0.1-1.5,0.3s-0.8,0.5-1,1
		c-0.2,0.4-0.4,1-0.4,1.6c0,0.3,0,0.6,0,0.9s0,0.6,0,0.9c0,0.7,0.2,1.2,0.4,1.6c0.2,0.4,0.6,0.7,1,1c0.4,0.2,0.9,0.3,1.5,0.3
		c0.6,0,1.1-0.1,1.5-0.3c0.4-0.2,0.8-0.5,1-1c0.2-0.4,0.4-1,0.4-1.6c0-0.3,0-0.6,0-0.9s0-0.6,0-0.9C89.5,19,89.4,18.5,89.1,18z
		 M88.5,21.4c0,0.7-0.2,1.2-0.6,1.6s-0.8,0.5-1.3,0.5c-0.5,0-1-0.2-1.3-0.5c-0.3-0.3-0.5-0.8-0.6-1.6c0-0.3,0-0.6,0-0.8
		c0-0.2,0-0.5,0-0.8c0-0.5,0.1-0.9,0.3-1.2s0.4-0.5,0.7-0.7c0.3-0.1,0.6-0.2,0.9-0.2s0.7,0.1,0.9,0.2c0.3,0.1,0.5,0.4,0.7,0.7
		c0.2,0.3,0.3,0.7,0.3,1.2c0,0.3,0,0.6,0,0.8C88.5,20.8,88.5,21,88.5,21.4z"/>
	<path class="st0" d="M95,21.1c0.5-0.1,0.8-0.4,1.1-0.7c0.3-0.3,0.4-0.8,0.4-1.3c0-0.7-0.2-1.3-0.7-1.6c-0.5-0.4-1.1-0.6-1.9-0.6
		h-2.6c-0.1,0-0.1,0-0.2,0.1c0,0-0.1,0.1-0.1,0.2V24c0,0.1,0,0.1,0.1,0.2s0.1,0.1,0.2,0.1h0.5c0.1,0,0.1,0,0.2-0.1
		c0,0,0.1-0.1,0.1-0.2v-2.7H94l1.5,2.7c0,0.1,0.1,0.1,0.1,0.2c0.1,0.1,0.1,0.1,0.3,0.1h0.5c0.1,0,0.1,0,0.2-0.1c0,0,0.1-0.1,0.1-0.1
		c0,0,0-0.1,0-0.1L95,21.1z M93.9,20.4h-1.7v-2.6h1.7c0.5,0,0.9,0.1,1.2,0.3c0.3,0.2,0.4,0.5,0.4,1c0,0.4-0.1,0.8-0.4,1
		C94.8,20.2,94.4,20.4,93.9,20.4z"/>
	<path class="st0" d="M102.2,17.1c-0.4-0.2-0.8-0.3-1.3-0.3h-2.7c-0.1,0-0.1,0-0.2,0.1c0,0-0.1,0.1-0.1,0.2V24c0,0.1,0,0.1,0.1,0.2
		s0.1,0.1,0.2,0.1h0.6c0.1,0,0.1,0,0.2-0.1c0,0,0.1-0.1,0.1-0.2v-2.6h1.9c0.5,0,1-0.1,1.3-0.3c0.4-0.2,0.7-0.4,0.9-0.7
		s0.3-0.7,0.3-1.2s-0.1-0.9-0.3-1.2C102.9,17.5,102.6,17.3,102.2,17.1z M102,20.1c-0.3,0.2-0.6,0.3-1.2,0.3H99v-2.7h1.8
		c0.5,0,0.9,0.1,1.2,0.4s0.4,0.6,0.4,1C102.4,19.5,102.3,19.9,102,20.1z"/>
	<path class="st0" d="M109.9,18c-0.2-0.4-0.6-0.8-1-1s-0.9-0.3-1.5-0.3c-0.6,0-1.1,0.1-1.5,0.3s-0.8,0.5-1,1s-0.4,1-0.4,1.6
		c0,0.3,0,0.6,0,0.9s0,0.6,0,0.9c0,0.7,0.2,1.2,0.4,1.6c0.2,0.4,0.6,0.7,1,1c0.4,0.2,0.9,0.3,1.5,0.3c0.6,0,1.1-0.1,1.5-0.3
		c0.4-0.2,0.8-0.5,1-1c0.2-0.4,0.4-1,0.4-1.6c0-0.3,0-0.6,0-0.9s0-0.6,0-0.9C110.2,19,110.1,18.5,109.9,18z M109.2,21.4
		c0,0.7-0.2,1.2-0.6,1.6c-0.3,0.3-0.8,0.5-1.3,0.5s-1-0.2-1.3-0.5s-0.5-0.8-0.6-1.6c0-0.3,0-0.6,0-0.8c0-0.2,0-0.5,0-0.8
		c0-0.5,0.1-0.9,0.3-1.2c0.2-0.3,0.4-0.5,0.7-0.7c0.3-0.1,0.6-0.2,0.9-0.2c0.3,0,0.7,0.1,0.9,0.2c0.3,0.1,0.5,0.4,0.7,0.7
		c0.2,0.3,0.3,0.7,0.3,1.2c0,0.3,0,0.6,0,0.8C109.2,20.8,109.2,21,109.2,21.4z"/>
	<path class="st0" d="M115.7,21.1c0.5-0.1,0.8-0.4,1.1-0.7c0.3-0.3,0.4-0.8,0.4-1.3c0-0.7-0.2-1.3-0.7-1.6s-1.1-0.6-1.9-0.6h-2.6
		c-0.1,0-0.1,0-0.2,0.1c0,0-0.1,0.1-0.1,0.2V24c0,0.1,0,0.1,0.1,0.2s0.1,0.1,0.2,0.1h0.5c0.1,0,0.1,0,0.2-0.1c0,0,0.1-0.1,0.1-0.2
		v-2.7h1.8l1.5,2.7c0,0.1,0.1,0.1,0.1,0.2c0.1,0.1,0.1,0.1,0.3,0.1h0.5c0.1,0,0.1,0,0.2-0.1s0.1-0.1,0.1-0.1c0,0,0-0.1,0-0.1
		L115.7,21.1z M114.6,20.4h-1.7v-2.6h1.7c0.5,0,0.9,0.1,1.2,0.3c0.3,0.2,0.4,0.5,0.4,1c0,0.4-0.1,0.8-0.4,1
		C115.5,20.2,115.1,20.4,114.6,20.4z"/>
	<path class="st0" d="M122,17.1c0-0.1-0.1-0.1-0.1-0.2s-0.1-0.1-0.2-0.1h-0.7c-0.1,0-0.2,0-0.2,0.1c0,0-0.1,0.1-0.1,0.2l-2.6,6.8
		c0,0,0,0.1,0,0.1c0,0.1,0,0.1,0.1,0.1s0.1,0.1,0.1,0.1h0.5c0.1,0,0.1,0,0.2-0.1s0.1-0.1,0.1-0.1l0.6-1.5h3.4l0.6,1.5
		c0,0,0,0.1,0.1,0.1c0,0,0.1,0.1,0.2,0.1h0.5c0.1,0,0.1,0,0.1-0.1s0.1-0.1,0.1-0.1c0,0,0-0.1,0-0.1L122,17.1z M119.9,21.6l1.4-3.7
		l1.4,3.7H119.9z"/>
	<path class="st0" d="M130.4,16.8h-5.1c-0.1,0-0.1,0-0.2,0.1c0,0-0.1,0.1-0.1,0.2v0.4c0,0.1,0,0.1,0.1,0.2c0,0,0.1,0.1,0.2,0.1h2V24
		c0,0.1,0,0.1,0.1,0.2c0,0,0.1,0.1,0.2,0.1h0.5c0.1,0,0.1,0,0.2-0.1s0.1-0.1,0.1-0.2v-6.2h2c0.1,0,0.1,0,0.2-0.1
		c0,0,0.1-0.1,0.1-0.2v-0.4c0-0.1,0-0.1-0.1-0.2C130.5,16.9,130.5,16.8,130.4,16.8z"/>
	<path class="st0" d="M132.6,16.8h-0.6c-0.1,0-0.1,0-0.2,0.1c0,0-0.1,0.1-0.1,0.2V24c0,0.1,0,0.1,0.1,0.2s0.1,0.1,0.2,0.1h0.6
		c0.1,0,0.1,0,0.2-0.1s0.1-0.1,0.1-0.2v-6.9c0-0.1,0-0.1-0.1-0.2C132.7,16.9,132.7,16.8,132.6,16.8z"/>
	<path class="st0" d="M139.8,18c-0.2-0.4-0.6-0.8-1-1s-0.9-0.3-1.5-0.3c-0.6,0-1.1,0.1-1.5,0.3s-0.8,0.5-1,1s-0.4,1-0.4,1.6
		c0,0.3,0,0.6,0,0.9s0,0.6,0,0.9c0,0.7,0.2,1.2,0.4,1.6c0.2,0.4,0.6,0.7,1,1c0.4,0.2,0.9,0.3,1.5,0.3c0.6,0,1.1-0.1,1.5-0.3
		c0.4-0.2,0.8-0.5,1-1c0.2-0.4,0.4-1,0.4-1.6c0-0.3,0-0.6,0-0.9s0-0.6,0-0.9C140.2,19,140.1,18.5,139.8,18z M139.2,21.4
		c0,0.7-0.2,1.2-0.6,1.6c-0.3,0.3-0.8,0.5-1.3,0.5s-1-0.2-1.3-0.5s-0.5-0.8-0.6-1.6c0-0.3,0-0.6,0-0.8c0-0.2,0-0.5,0-0.8
		c0-0.5,0.1-0.9,0.3-1.2c0.2-0.3,0.4-0.5,0.7-0.7c0.3-0.1,0.6-0.2,0.9-0.2c0.3,0,0.7,0.1,0.9,0.2c0.3,0.1,0.5,0.4,0.7,0.7
		c0.2,0.3,0.3,0.7,0.3,1.2c0,0.3,0,0.6,0,0.8C139.2,20.8,139.2,21,139.2,21.4z"/>
	<path class="st0" d="M147,16.8h-0.5c-0.1,0-0.1,0-0.2,0.1c0,0-0.1,0.1-0.1,0.2v5.3l-3.5-5.4c0,0,0-0.1-0.1-0.1c0,0-0.1-0.1-0.2-0.1
		H142c-0.1,0-0.1,0-0.2,0.1c0,0-0.1,0.1-0.1,0.2V24c0,0.1,0,0.1,0.1,0.2s0.1,0.1,0.2,0.1h0.5c0.1,0,0.1,0,0.2-0.1s0.1-0.1,0.1-0.2
		v-5.2l3.5,5.3c0,0,0,0,0.1,0.1c0,0,0.1,0.1,0.2,0.1h0.5c0.1,0,0.1,0,0.2-0.1c0,0,0.1-0.1,0.1-0.2v-6.8c0-0.1,0-0.1-0.1-0.2
		C147.1,16.9,147.1,16.8,147,16.8z"/>
	<path class="st0" d="M156.2,23.3h-3.5v-6.2c0-0.1,0-0.1-0.1-0.2c0,0-0.1-0.1-0.2-0.1h-0.6c-0.1,0-0.1,0-0.2,0.1
		c0,0-0.1,0.1-0.1,0.2V24c0,0.1,0,0.1,0.1,0.2s0.1,0.1,0.2,0.1h4.3c0.1,0,0.1,0,0.2-0.1c0,0,0.1-0.1,0.1-0.2v-0.4
		c0-0.1,0-0.1-0.1-0.2C156.3,23.3,156.3,23.3,156.2,23.3z"/>
	<path class="st0" d="M158.4,16.8h-0.6c-0.1,0-0.1,0-0.2,0.1c0,0-0.1,0.1-0.1,0.2V24c0,0.1,0,0.1,0.1,0.2s0.1,0.1,0.2,0.1h0.6
		c0.1,0,0.1,0,0.2-0.1s0.1-0.1,0.1-0.2v-6.9c0-0.1,0-0.1-0.1-0.2C158.5,16.9,158.4,16.8,158.4,16.8z"/>
	<path class="st0" d="M166.7,16.8h-0.5c-0.1,0-0.1,0-0.2,0.1c0,0-0.1,0.1-0.1,0.1l-2.2,4.2l-2.2-4.2c0,0,0-0.1-0.1-0.1
		s-0.1-0.1-0.2-0.1h-0.5c-0.1,0-0.1,0-0.2,0.1c0,0-0.1,0.1-0.1,0.2V24c0,0.1,0,0.1,0.1,0.2c0,0,0.1,0.1,0.2,0.1h0.5
		c0.1,0,0.1,0,0.2-0.1s0.1-0.1,0.1-0.2v-5.2l1.8,3.4c0,0.1,0.1,0.1,0.1,0.2c0,0,0.1,0.1,0.2,0.1h0.3c0.1,0,0.2,0,0.2-0.1
		c0.1,0,0.1-0.1,0.1-0.2l1.8-3.4V24c0,0.1,0,0.1,0.1,0.2s0.1,0.1,0.2,0.1h0.5c0.1,0,0.1,0,0.2-0.1c0,0,0.1-0.1,0.1-0.2v-6.9
		c0-0.1,0-0.1-0.1-0.2C166.8,16.9,166.8,16.8,166.7,16.8z"/>
	<path class="st0" d="M169.6,16.8H169c-0.1,0-0.1,0-0.2,0.1c0,0-0.1,0.1-0.1,0.2V24c0,0.1,0,0.1,0.1,0.2s0.1,0.1,0.2,0.1h0.6
		c0.1,0,0.1,0,0.2-0.1s0.1-0.1,0.1-0.2v-6.9c0-0.1,0-0.1-0.1-0.2C169.7,16.9,169.6,16.8,169.6,16.8z"/>
	<path class="st0" d="M176.3,16.8h-5.1c-0.1,0-0.1,0-0.2,0.1c0,0-0.1,0.1-0.1,0.2v0.4c0,0.1,0,0.1,0.1,0.2c0,0,0.1,0.1,0.2,0.1h2V24
		c0,0.1,0,0.1,0.1,0.2c0,0,0.1,0.1,0.2,0.1h0.5c0.1,0,0.1,0,0.2-0.1s0.1-0.1,0.1-0.2v-6.2h2c0.1,0,0.1,0,0.2-0.1
		c0,0,0.1-0.1,0.1-0.2v-0.4c0-0.1,0-0.1-0.1-0.2C176.4,16.9,176.4,16.8,176.3,16.8z"/>
	<path class="st0" d="M182.4,23.3h-3.7v-2.4h3.3c0.1,0,0.1,0,0.2-0.1c0,0,0.1-0.1,0.1-0.2v-0.4c0-0.1,0-0.1-0.1-0.2
		s-0.1-0.1-0.2-0.1h-3.3v-2.3h3.6c0.1,0,0.1,0,0.2-0.1s0.1-0.1,0.1-0.2v-0.4c0-0.1,0-0.1-0.1-0.2c0,0-0.1-0.1-0.2-0.1H178
		c-0.1,0-0.1,0-0.2,0.1c0,0-0.1,0.1-0.1,0.2V24c0,0.1,0,0.1,0.1,0.2s0.1,0.1,0.2,0.1h4.4c0.1,0,0.1,0,0.2-0.1s0.1-0.1,0.1-0.2v-0.4
		c0-0.1,0-0.1-0.1-0.2S182.5,23.3,182.4,23.3z"/>
	<path class="st0" d="M189.4,18.1c-0.2-0.4-0.5-0.7-1-1c-0.4-0.2-1-0.3-1.7-0.3h-2.4c-0.1,0-0.1,0-0.2,0.1c0,0-0.1,0.1-0.1,0.2V24
		c0,0.1,0,0.1,0.1,0.2s0.1,0.1,0.2,0.1h2.4c0.7,0,1.3-0.1,1.7-0.3c0.4-0.2,0.7-0.5,0.9-0.9s0.3-1,0.3-1.6c0-0.3,0-0.6,0-0.8
		c0-0.2,0-0.5,0-0.8C189.7,19.1,189.6,18.6,189.4,18.1z M188.7,20.8c0,0.2,0,0.3,0,0.6c0,0.5-0.1,0.9-0.2,1.2
		c-0.1,0.3-0.3,0.5-0.6,0.6c-0.3,0.1-0.7,0.2-1.2,0.2h-1.6v-5.6h1.5c0.7,0,1.2,0.2,1.6,0.5c0.3,0.3,0.5,0.8,0.5,1.5
		c0,0.2,0,0.4,0,0.5S188.7,20.6,188.7,20.8z"/>
	<path class="st0" d="M192.3,23c0,0-0.1-0.1-0.2-0.1h-0.8c-0.1,0-0.1,0-0.2,0.1c0,0-0.1,0.1-0.1,0.2V24c0,0.1,0,0.1,0.1,0.2
		c0,0,0.1,0.1,0.2,0.1h0.8c0.1,0,0.1,0,0.2-0.1c0,0,0.1-0.1,0.1-0.2v-0.8C192.4,23.1,192.3,23.1,192.3,23z"/>
	<path class="st0" d="M9.4,4.9H8.1V3.6c0-1.7-1.4-3.1-3.1-3.1S1.9,1.9,1.9,3.6v1.3H0.6v7.1h8.8V4.9z M2.8,3.6c0-1.2,1-2.2,2.2-2.2
		s2.2,1,2.2,2.2v1.3H2.8V3.6z M8.6,11.1H1.5V5.8h7.1V11.1z"/>
	<path class="st0" d="M21.9,10.9c0.2-0.3,0.3-0.7,0.3-1.1c0-0.4-0.1-0.7-0.3-1c-0.2-0.3-0.4-0.5-0.8-0.6c-0.4-0.2-0.8-0.3-1.4-0.5
		c-0.5-0.1-0.8-0.3-1.1-0.4c-0.3-0.1-0.5-0.3-0.6-0.4c-0.1-0.2-0.2-0.4-0.2-0.6c0-0.4,0.1-0.6,0.4-0.8c0.3-0.2,0.7-0.3,1.1-0.3
		c0.4,0,0.8,0.1,1.1,0.3S20.9,6,21,6.3c0,0.1,0.1,0.1,0.1,0.2c0.1,0,0.1,0,0.2,0h0.6c0.1,0,0.1,0,0.2-0.1c0,0,0.1-0.1,0.1-0.1
		C22,6,22,5.8,21.9,5.6c-0.1-0.2-0.3-0.4-0.5-0.6c-0.2-0.2-0.5-0.3-0.8-0.5c-0.3-0.1-0.7-0.2-1.1-0.2c-0.5,0-1,0.1-1.4,0.3
		S17.3,5,17.1,5.3c-0.2,0.3-0.3,0.6-0.3,1c0,0.4,0.1,0.7,0.2,1c0.2,0.3,0.4,0.5,0.8,0.7c0.3,0.2,0.8,0.3,1.3,0.5
		c0.5,0.1,0.9,0.3,1.2,0.4C20.6,9,20.8,9.1,21,9.2s0.2,0.3,0.2,0.6c0,0.4-0.1,0.6-0.4,0.9c-0.3,0.2-0.7,0.3-1.3,0.3
		c-0.4,0-0.7-0.1-1-0.2c-0.2-0.1-0.4-0.2-0.6-0.4c-0.1-0.2-0.2-0.3-0.3-0.5c0-0.1,0-0.1-0.1-0.1s-0.1-0.1-0.2-0.1h-0.5
		c-0.1,0-0.1,0-0.2,0.1c0,0-0.1,0.1-0.1,0.2c0,0.3,0.1,0.6,0.4,0.9c0.2,0.3,0.5,0.5,1,0.7c0.4,0.2,0.9,0.3,1.5,0.3
		c0.6,0,1.1-0.1,1.5-0.2C21.3,11.5,21.7,11.3,21.9,10.9z"/>
	<path class="st0" d="M27.5,11.8c0.1,0,0.1,0,0.2-0.1s0.1-0.1,0.1-0.2V8.2c0-0.2,0-0.5-0.1-0.7c-0.1-0.2-0.2-0.4-0.4-0.6
		c-0.2-0.2-0.4-0.3-0.7-0.4S26,6.2,25.6,6.2c-0.4,0-0.7,0.1-1,0.2c-0.3,0.1-0.5,0.2-0.6,0.4c-0.2,0.1-0.3,0.3-0.4,0.5
		c-0.1,0.2-0.1,0.3-0.1,0.4c0,0.1,0,0.1,0.1,0.2c0,0,0.1,0.1,0.2,0.1h0.5c0.1,0,0.2-0.1,0.2-0.2c0.1-0.2,0.2-0.4,0.4-0.5
		S25.2,7,25.6,7c0.4,0,0.7,0.1,0.9,0.3c0.2,0.2,0.3,0.5,0.3,0.8v0.3l-1.6,0.2c-0.6,0.1-1.1,0.3-1.5,0.6s-0.6,0.7-0.6,1.2
		c0,0.3,0.1,0.6,0.3,0.8c0.2,0.2,0.4,0.4,0.7,0.6c0.3,0.1,0.6,0.2,1,0.2c0.3,0,0.6,0,0.9-0.1c0.2-0.1,0.4-0.2,0.6-0.3
		c0.2-0.1,0.3-0.2,0.4-0.4v0.5c0,0.1,0,0.1,0.1,0.2s0.1,0.1,0.2,0.1H27.5z M26.8,9.4c0,0.4-0.1,0.7-0.2,1c-0.1,0.3-0.3,0.4-0.6,0.6
		c-0.2,0.1-0.5,0.2-0.8,0.2c-0.2,0-0.4,0-0.6-0.1c-0.2-0.1-0.3-0.2-0.4-0.3c-0.1-0.1-0.2-0.3-0.2-0.5c0-0.3,0.1-0.5,0.4-0.6
		c0.3-0.2,0.6-0.3,1.1-0.4l1.2-0.2V9.4z"/>
	<path class="st0" d="M28.9,7.2h0.9v4.4c0,0.1,0,0.1,0.1,0.2s0.1,0.1,0.2,0.1h0.5c0.1,0,0.1,0,0.2-0.1c0,0,0.1-0.1,0.1-0.2V7.2h1.4
		c0.1,0,0.1,0,0.2-0.1s0.1-0.1,0.1-0.2V6.6c0-0.1,0-0.1-0.1-0.2c0,0-0.1-0.1-0.2-0.1h-1.4V5.9c0-0.3,0.1-0.6,0.2-0.7
		s0.3-0.3,0.7-0.3h0.6c0.1,0,0.1,0,0.2-0.1c0,0,0.1-0.1,0.1-0.2V4.3c0-0.1,0-0.1-0.1-0.2c0,0-0.1-0.1-0.2-0.1h-0.6
		c-0.4,0-0.8,0.1-1.1,0.2c-0.3,0.1-0.5,0.4-0.6,0.6s-0.2,0.6-0.2,0.9v0.5h-0.9c-0.1,0-0.1,0-0.2,0.1c0,0-0.1,0.1-0.1,0.2v0.4
		c0,0.1,0,0.1,0.1,0.2C28.8,7.2,28.9,7.2,28.9,7.2z"/>
	<path class="st0" d="M36.5,11.8c0.3-0.1,0.5-0.2,0.7-0.4c0.2-0.1,0.3-0.3,0.4-0.4s0.2-0.3,0.2-0.4c0,0,0,0,0,0c0-0.1,0-0.1-0.1-0.1
		s-0.1-0.1-0.2-0.1h-0.5c-0.1,0-0.1,0-0.2,0c0,0-0.1,0.1-0.1,0.2c0,0.1-0.1,0.1-0.2,0.2c-0.1,0.1-0.2,0.2-0.4,0.3
		c-0.2,0.1-0.4,0.1-0.6,0.1c-0.3,0-0.5-0.1-0.8-0.2s-0.4-0.4-0.5-0.6c-0.1-0.2-0.2-0.5-0.2-0.8V9.4h3.6c0.1,0,0.1,0,0.2-0.1
		s0.1-0.1,0.1-0.2V9c0-0.6-0.1-1-0.3-1.4c-0.2-0.4-0.5-0.7-0.8-1c-0.4-0.2-0.8-0.3-1.3-0.3c-0.5,0-0.9,0.1-1.2,0.3S33.6,7,33.4,7.4
		c-0.2,0.4-0.3,0.8-0.3,1.3c0,0.1,0,0.2,0,0.4s0,0.3,0,0.4c0,0.8,0.3,1.4,0.7,1.8c0.4,0.4,1,0.7,1.7,0.7
		C35.9,11.9,36.2,11.9,36.5,11.8z M34.1,8.6c0-0.3,0.1-0.6,0.2-0.8s0.3-0.4,0.5-0.6S35.2,7,35.5,7c0.3,0,0.6,0.1,0.8,0.2
		c0.2,0.1,0.4,0.3,0.5,0.6c0.1,0.2,0.2,0.5,0.2,0.8v0L34.1,8.6L34.1,8.6z"/>
	<path class="st0" d="M44.2,11.8c0.2-0.1,0.4-0.2,0.6-0.3c0.2-0.1,0.3-0.2,0.4-0.4v0.5c0,0.1,0,0.1,0.1,0.2s0.1,0.1,0.2,0.1h0.5
		c0.1,0,0.1,0,0.2-0.1s0.1-0.1,0.1-0.2V8.2c0-0.2,0-0.5-0.1-0.7c-0.1-0.2-0.2-0.4-0.4-0.6c-0.2-0.2-0.4-0.3-0.7-0.4
		s-0.6-0.2-1.1-0.2c-0.4,0-0.7,0.1-1,0.2c-0.3,0.1-0.5,0.2-0.6,0.4c-0.2,0.1-0.3,0.3-0.4,0.5c-0.1,0.2-0.1,0.3-0.1,0.4
		c0,0.1,0,0.1,0.1,0.2c0,0,0.1,0.1,0.2,0.1h0.5c0.1,0,0.2-0.1,0.2-0.2c0.1-0.2,0.2-0.4,0.4-0.5S43.5,7,43.8,7c0.4,0,0.7,0.1,0.9,0.3
		c0.2,0.2,0.3,0.5,0.3,0.8v0.3l-1.6,0.2c-0.6,0.1-1.1,0.3-1.5,0.6s-0.6,0.7-0.6,1.2c0,0.3,0.1,0.6,0.3,0.8c0.2,0.2,0.4,0.4,0.7,0.6
		c0.3,0.1,0.6,0.2,1,0.2C43.6,11.9,43.9,11.9,44.2,11.8z M42.5,10.7c-0.1-0.1-0.2-0.3-0.2-0.5c0-0.3,0.1-0.5,0.4-0.6
		c0.3-0.2,0.6-0.3,1.1-0.4l1.2-0.2v0.3c0,0.4-0.1,0.7-0.2,1c-0.1,0.3-0.3,0.4-0.6,0.6c-0.2,0.1-0.5,0.2-0.8,0.2
		c-0.2,0-0.4,0-0.6-0.1C42.8,11,42.6,10.9,42.5,10.7z"/>
	<path class="st0" d="M51.1,7.5c0.2,0.3,0.4,0.7,0.4,1.1v2.9c0,0.1,0,0.1,0.1,0.2s0.1,0.1,0.2,0.1h0.5c0.1,0,0.1,0,0.2-0.1
		c0,0,0.1-0.1,0.1-0.2v-3c0-0.5-0.1-0.9-0.2-1.2s-0.4-0.6-0.7-0.8c-0.3-0.2-0.7-0.3-1.2-0.3c-0.4,0-0.8,0.1-1.1,0.2
		C49,6.6,48.7,6.8,48.6,7V6.6c0-0.1,0-0.1-0.1-0.2c0,0-0.1-0.1-0.2-0.1h-0.5c-0.1,0-0.1,0-0.2,0.1c0,0-0.1,0.1-0.1,0.2v5
		c0,0.1,0,0.1,0.1,0.2s0.1,0.1,0.2,0.1h0.5c0.1,0,0.1,0,0.2-0.1c0,0,0.1-0.1,0.1-0.2V8.6c0-0.5,0.1-0.9,0.4-1.1s0.6-0.4,1-0.4
		C50.5,7.1,50.8,7.2,51.1,7.5z"/>
	<path class="st0" d="M58.4,4.3h-0.5c-0.1,0-0.1,0-0.2,0.1c0,0-0.1,0.1-0.1,0.2V7c-0.2-0.2-0.4-0.4-0.7-0.5c-0.3-0.1-0.6-0.2-1-0.2
		c-0.4,0-0.7,0.1-1,0.2S54.4,6.8,54.2,7c-0.2,0.2-0.3,0.5-0.4,0.8c-0.1,0.3-0.1,0.6-0.2,0.9c0,0.1,0,0.2,0,0.3c0,0.1,0,0.2,0,0.3
		c0,0.3,0.1,0.7,0.2,1c0.1,0.3,0.2,0.6,0.4,0.8c0.2,0.2,0.4,0.4,0.7,0.6s0.6,0.2,1,0.2c0.4,0,0.8-0.1,1-0.2c0.3-0.2,0.5-0.3,0.7-0.6
		v0.4c0,0.1,0,0.1,0.1,0.2s0.1,0.1,0.2,0.1h0.5c0.1,0,0.1,0,0.2-0.1s0.1-0.1,0.1-0.2v-7c0-0.1,0-0.1-0.1-0.2
		C58.5,4.4,58.4,4.3,58.4,4.3z M57.6,9.4c0,0.3-0.1,0.5-0.2,0.8c-0.1,0.2-0.3,0.5-0.5,0.6c-0.2,0.2-0.5,0.2-0.8,0.2
		c-0.4,0-0.6-0.1-0.9-0.2c-0.2-0.2-0.4-0.4-0.5-0.6s-0.1-0.5-0.2-0.8c0-0.1,0-0.2,0-0.3c0-0.1,0-0.2,0-0.3c0-0.3,0.1-0.6,0.2-0.8
		c0.1-0.3,0.2-0.5,0.5-0.6s0.5-0.2,0.9-0.2c0.3,0,0.6,0.1,0.8,0.2c0.2,0.2,0.4,0.3,0.5,0.6s0.2,0.5,0.2,0.7c0,0.1,0,0.2,0,0.4
		C57.6,9.2,57.6,9.3,57.6,9.4z"/>
	<path class="st0" d="M67,8.2c-0.4-0.2-0.8-0.3-1.4-0.5c-0.5-0.1-0.8-0.3-1.1-0.4c-0.3-0.1-0.5-0.3-0.6-0.4
		c-0.1-0.2-0.2-0.4-0.2-0.6c0-0.4,0.1-0.6,0.4-0.8c0.3-0.2,0.7-0.3,1.1-0.3c0.4,0,0.8,0.1,1.1,0.3s0.4,0.4,0.5,0.7
		c0,0.1,0.1,0.1,0.1,0.2c0.1,0,0.1,0,0.2,0h0.6c0.1,0,0.1,0,0.2-0.1c0,0,0.1-0.1,0.1-0.1c0-0.2-0.1-0.4-0.2-0.6
		c-0.1-0.2-0.3-0.4-0.5-0.6c-0.2-0.2-0.5-0.3-0.8-0.5c-0.3-0.1-0.7-0.2-1.1-0.2c-0.5,0-1,0.1-1.4,0.3c-0.4,0.2-0.7,0.4-0.9,0.7
		c-0.2,0.3-0.3,0.6-0.3,1c0,0.4,0.1,0.7,0.2,1C63,7.6,63.3,7.8,63.6,8c0.3,0.2,0.8,0.3,1.3,0.5c0.5,0.1,0.9,0.3,1.2,0.4
		c0.3,0.1,0.5,0.3,0.7,0.4S67,9.6,67,9.8c0,0.4-0.1,0.6-0.4,0.9c-0.3,0.2-0.7,0.3-1.3,0.3c-0.4,0-0.7-0.1-1-0.2
		c-0.2-0.1-0.4-0.2-0.6-0.4c-0.1-0.2-0.2-0.3-0.3-0.5c0-0.1,0-0.1-0.1-0.1s-0.1-0.1-0.2-0.1h-0.5c-0.1,0-0.1,0-0.2,0.1
		c0,0-0.1,0.1-0.1,0.2c0,0.3,0.1,0.6,0.4,0.9c0.2,0.3,0.5,0.5,1,0.7s0.9,0.3,1.5,0.3c0.6,0,1.1-0.1,1.5-0.2c0.4-0.2,0.7-0.4,1-0.7
		c0.2-0.3,0.3-0.7,0.3-1.1c0-0.4-0.1-0.7-0.3-1C67.6,8.6,67.4,8.4,67,8.2z"/>
	<path class="st0" d="M72.8,6.6c-0.4-0.2-0.8-0.3-1.3-0.3c-0.5,0-0.9,0.1-1.2,0.3S69.6,7,69.4,7.4c-0.2,0.4-0.3,0.8-0.3,1.3
		c0,0.1,0,0.2,0,0.4s0,0.3,0,0.4c0,0.8,0.3,1.4,0.7,1.8c0.4,0.4,1,0.7,1.7,0.7c0.4,0,0.7,0,1-0.1s0.5-0.2,0.7-0.4
		c0.2-0.1,0.3-0.3,0.4-0.4c0.1-0.2,0.2-0.3,0.2-0.4c0,0,0,0,0,0c0-0.1,0-0.1-0.1-0.1s-0.1-0.1-0.2-0.1H73c-0.1,0-0.1,0-0.2,0
		s-0.1,0.1-0.1,0.2c0,0.1-0.1,0.1-0.2,0.2c-0.1,0.1-0.2,0.2-0.4,0.3c-0.2,0.1-0.4,0.1-0.6,0.1c-0.3,0-0.5-0.1-0.8-0.2
		c-0.2-0.2-0.4-0.4-0.5-0.6C70.1,10,70,9.8,70,9.5V9.4h3.6c0.1,0,0.1,0,0.2-0.1c0,0,0.1-0.1,0.1-0.2V9c0-0.6-0.1-1-0.3-1.4
		C73.4,7.1,73.2,6.8,72.8,6.6z M72.9,8.7H70v0c0-0.3,0.1-0.6,0.2-0.8s0.3-0.4,0.5-0.6S71.2,7,71.5,7s0.6,0.1,0.8,0.2
		s0.4,0.3,0.5,0.6C72.9,8,72.9,8.3,72.9,8.7L72.9,8.7z"/>
	<path class="st0" d="M78.2,11.8c0.3-0.1,0.5-0.2,0.7-0.3c0.2-0.1,0.3-0.3,0.5-0.4c0.1-0.2,0.2-0.3,0.3-0.5c0.1-0.2,0.1-0.3,0.1-0.5
		c0,0,0,0,0,0c0-0.1,0-0.1-0.1-0.2c0,0-0.1-0.1-0.2-0.1H79c-0.1,0-0.1,0-0.2,0.1c0,0-0.1,0.1-0.1,0.2c-0.1,0.3-0.3,0.6-0.5,0.7
		s-0.5,0.2-0.8,0.2c-0.4,0-0.8-0.1-1-0.4c-0.3-0.3-0.4-0.7-0.4-1.3c0-0.1,0-0.2,0-0.4c0-0.1,0-0.2,0-0.4c0-0.6,0.2-1,0.4-1.3
		c0.3-0.3,0.6-0.4,1-0.4c0.3,0,0.6,0.1,0.8,0.2c0.2,0.1,0.4,0.4,0.5,0.7c0,0.1,0.1,0.1,0.1,0.2c0,0,0.1,0,0.2,0h0.5
		c0.1,0,0.1,0,0.2-0.1c0,0,0.1-0.1,0.1-0.2c0,0,0,0,0,0c0-0.2-0.1-0.4-0.2-0.6c-0.1-0.2-0.2-0.4-0.4-0.6c-0.2-0.2-0.4-0.3-0.7-0.4
		c-0.3-0.1-0.6-0.2-1-0.2c-0.5,0-0.9,0.1-1.3,0.3c-0.4,0.2-0.6,0.5-0.8,0.8c-0.2,0.4-0.3,0.8-0.3,1.3c0,0.1,0,0.2,0,0.4s0,0.3,0,0.4
		c0,0.5,0.1,0.9,0.3,1.3c0.2,0.4,0.5,0.6,0.8,0.8c0.4,0.2,0.8,0.3,1.3,0.3C77.7,11.9,78,11.9,78.2,11.8z"/>
	<path class="st0" d="M84.8,11.1v0.5c0,0.1,0,0.1,0.1,0.2s0.1,0.1,0.2,0.1h0.5c0.1,0,0.1,0,0.2-0.1s0.1-0.1,0.1-0.2v-5
		c0-0.1,0-0.1-0.1-0.2c0,0-0.1-0.1-0.2-0.1H85c-0.1,0-0.1,0-0.2,0.1c0,0-0.1,0.1-0.1,0.2v2.9c0,0.5-0.1,0.9-0.4,1.2
		c-0.3,0.3-0.6,0.4-1,0.4c-0.9,0-1.4-0.5-1.4-1.6V6.6c0-0.1,0-0.1-0.1-0.2c0,0-0.1-0.1-0.2-0.1h-0.5c-0.1,0-0.1,0-0.2,0.1
		c0,0-0.1,0.1-0.1,0.2v3c0,0.5,0.1,0.9,0.2,1.2s0.4,0.6,0.7,0.8s0.7,0.3,1.1,0.3c0.4,0,0.8-0.1,1.1-0.2
		C84.3,11.5,84.6,11.3,84.8,11.1z"/>
	<path class="st0" d="M90.1,6.3h-0.4c-0.4,0-0.6,0.1-0.9,0.2c-0.2,0.1-0.4,0.3-0.6,0.5V6.6c0-0.1,0-0.1-0.1-0.2S88.1,6.3,88,6.3
		h-0.5c-0.1,0-0.1,0-0.2,0.1c0,0-0.1,0.1-0.1,0.2v5c0,0.1,0,0.1,0.1,0.2c0,0,0.1,0.1,0.2,0.1H88c0.1,0,0.1,0,0.2-0.1
		c0,0,0.1-0.1,0.1-0.2V8.5c0-0.4,0.1-0.7,0.3-0.9s0.5-0.3,0.9-0.3h0.6c0.1,0,0.1,0,0.2-0.1c0,0,0.1-0.1,0.1-0.2V6.6
		c0-0.1,0-0.1-0.1-0.2C90.3,6.4,90.2,6.3,90.1,6.3z"/>
	<path class="st0" d="M93.5,11.9c0.4,0,0.7,0,1-0.1s0.5-0.2,0.7-0.4c0.2-0.1,0.3-0.3,0.4-0.4c0.1-0.2,0.2-0.3,0.2-0.4c0,0,0,0,0,0
		c0-0.1,0-0.1-0.1-0.1s-0.1-0.1-0.2-0.1H95c-0.1,0-0.1,0-0.2,0s-0.1,0.1-0.1,0.2c0,0.1-0.1,0.1-0.2,0.2c-0.1,0.1-0.2,0.2-0.4,0.3
		c-0.2,0.1-0.4,0.1-0.6,0.1c-0.3,0-0.5-0.1-0.8-0.2c-0.2-0.2-0.4-0.4-0.5-0.6C92.1,10,92,9.8,92,9.5V9.4h3.6c0.1,0,0.1,0,0.2-0.1
		c0,0,0.1-0.1,0.1-0.2V9c0-0.6-0.1-1-0.3-1.4c-0.2-0.4-0.5-0.7-0.8-1c-0.4-0.2-0.8-0.3-1.3-0.3c-0.5,0-0.9,0.1-1.2,0.3
		S91.6,7,91.4,7.4c-0.2,0.4-0.3,0.8-0.3,1.3c0,0.1,0,0.2,0,0.4s0,0.3,0,0.4c0,0.8,0.3,1.4,0.7,1.8C92.2,11.7,92.7,11.9,93.5,11.9z
		 M92,8.6c0-0.3,0.1-0.6,0.2-0.8s0.3-0.4,0.5-0.6S93.1,7,93.4,7s0.6,0.1,0.8,0.2s0.4,0.3,0.5,0.6c0.1,0.2,0.2,0.5,0.2,0.8v0L92,8.6
		L92,8.6z"/>
</g>
</svg>
